<svg xmlns="http://www.w3.org/2000/svg" viewBox="0 0 1200 500" width="1200" height="500" role="img" aria-label="Logo lockups · Softbloom">
      <style>
  .bg { fill: #FAF6F2; }
  .surface { fill: #FFFFFF; }
  .muted-surface { fill: #F2EBE4; }
  .display { font-family: 'Fraunces', 'GT Super', Georgia, 'Times New Roman', serif; font-weight: 400; fill: #2B1F1C; }
  .display-italic { font-family: 'Fraunces', 'GT Super', Georgia, 'Times New Roman', serif; font-weight: 400; font-style: italic; fill: #2B1F1C; }
  .sans { font-family: 'Inter', 'General Sans', -apple-system, BlinkMacSystemFont, 'Segoe UI', sans-serif; font-weight: 400; fill: #2B1F1C; }
  .sans-medium { font-family: 'Inter', 'General Sans', -apple-system, BlinkMacSystemFont, 'Segoe UI', sans-serif; font-weight: 500; fill: #2B1F1C; }
  .mono { font-family: 'JetBrains Mono', 'IBM Plex Mono', 'Cascadia Code', ui-monospace, monospace; font-weight: 400; fill: #6B5A52; }
  .mono-ink { font-family: 'JetBrains Mono', 'IBM Plex Mono', 'Cascadia Code', ui-monospace, monospace; font-weight: 400; fill: #2B1F1C; }
  .label { font-family: 'Inter', 'General Sans', -apple-system, BlinkMacSystemFont, 'Segoe UI', sans-serif; font-weight: 500; fill: #2B1F1C; }
  .secondary { font-family: 'Inter', 'General Sans', -apple-system, BlinkMacSystemFont, 'Segoe UI', sans-serif; font-weight: 400; fill: #6B5A52; }
  .tertiary { font-family: 'Inter', 'General Sans', -apple-system, BlinkMacSystemFont, 'Segoe UI', sans-serif; font-weight: 400; fill: #A89589; }
  .eyebrow { font-family: 'Inter', 'General Sans', -apple-system, BlinkMacSystemFont, 'Segoe UI', sans-serif; font-weight: 500; fill: #6B5A52; letter-spacing: 0.08em; text-transform: uppercase; }
  .swatch { stroke: #E0D5CA; stroke-width: 0.5; }
</style>
      <rect class="bg" width="1200" height="500"/>
      <text x="40" y="68" class="display" font-size="40" letter-spacing="-0.02em">Logo lockups</text>
      <text x="40" y="96" class="secondary" font-size="14">Serif jw monogram with a five-petal sakura mark. Each lockup is tuned for a specific context.</text>
      <g transform="translate(40 140)">
      <rect width="272" height="280" rx="16" fill="#FFFFFF" stroke="#E0D5CA" stroke-width="0.5"/>
      <svg x="56.0" y="32" width="160" height="160" viewBox="0 0 2000 2000" preserveAspectRatio="xMidYMid meet">
        <g id="Generated-Image-April-17--2026---4_15PM.jpg" transform="matrix(1.587553,-0.181492,0.170246,1.692416,491.723728,540.102163)">
    <path d="M65.722,56.344C64.034,53.66 52.775,35.753 65.819,16.711C72.968,6.273 74.472,16.509 78.588,18.268C80.151,18.936 80.012,17.98 85.663,12.684C91.068,7.618 113.164,43.17 82.271,66.183C77.884,69.451 73.233,65.664 65.722,56.344Z" style="fill:rgb(232,127,160);"/>
    <path d="M93.876,68.643C95.393,65.406 106.526,41.657 133.424,47.851C140.41,49.46 143.122,50.282 139.871,56.712C135.707,64.948 143.123,62.436 146.489,66.509C149.757,70.463 126.314,100.706 95.835,81.017C89.739,77.08 91.589,75.53 93.876,68.643Z" style="fill:rgb(232,127,160);"/>
    <path d="M46.467,87.257C43.355,87.49 21.845,89.099 11.812,69.35C9.441,64.682 20.955,63.512 19.808,60.427C17.4,53.955 13.02,51.79 19.429,49.337C51.567,37.033 70.842,73.774 65.523,78.523C58.09,85.158 48.117,86.959 46.467,87.257Z" style="fill:rgb(232,127,160);"/>
    <path d="M114.031,138.394C113.347,140.452 113.38,143.899 103.678,140.081C76.435,129.36 81.876,91.728 88.475,91.27C125.959,88.669 132.62,132.425 124.503,132.421C123.858,132.421 124.023,131.855 116.495,131.453C115.148,131.381 115.604,132.144 114.031,138.394Z" style="fill:rgb(232,127,160);"/>
    <path d="M43.88,138.418C42.871,132.813 42.91,132.842 42.79,132.365C42.133,129.746 32.68,134.228 31.505,131.498C26.176,119.119 40.651,88.637 69.532,91.233C74.89,91.714 83.776,126.799 54.607,139.757C43.078,144.878 43.896,138.463 43.88,138.418Z" style="fill:rgb(232,127,160);"/>
    <path d="M71.923,80.511C73.94,70.363 82.29,74.466 83.51,75.488C93.2,83.618 73.69,96.632 71.923,80.511Z" style="fill:rgb(232,127,160);"/>
</g>
<g id="jw" transform="matrix(1.720985,0,0,1.834662,420.023216,585.501549)">
    <path d="M543.754,289.067C545.339,288.176 545.136,287.904 553.005,268.301C553.675,266.633 560.345,250.018 561.362,247.442C580.755,198.327 593.114,173.501 592.846,161.494C592.39,141.057 565.432,160.825 565.297,142.504C565.194,128.624 563.884,122.408 572.49,121.374C577.541,120.768 654.38,121.244 661.501,121.288C670.267,121.342 671.908,123.781 671.13,143.476C670.584,157.29 655.785,145.326 643.282,156.249C630.526,167.394 602.719,241.511 570.223,314.377C548.267,363.609 549.762,368.289 540.498,368.347C510.818,368.531 509.172,368.469 506.929,365.181C503.897,360.735 458.072,253.109 453.908,243.328C441.273,213.653 441.83,213.326 441.098,212.913C439.096,211.786 439.712,213.491 438.821,215.642C435.622,223.365 389.474,330.18 388.819,331.639C374.787,362.9 376.512,368.134 365.499,368.353C336.994,368.92 335.788,367.78 333.949,366.041C331.038,363.289 302.087,293.314 288.769,263.381C274.073,230.35 250.035,170.039 241.83,159.264C231.067,145.132 216.815,158.104 216.721,142.496C216.641,129.034 215.903,124.894 220.363,122.222C223.287,120.469 339.016,121.137 341.375,121.864C348.761,124.14 345.618,146.684 344.335,148.378C338.925,155.518 311.261,143.07 323.863,180.366C329.404,196.766 360.869,268.055 364.21,275.627C366.277,280.308 369.974,290.809 371.021,289.082C371.465,288.351 371.471,287.429 371.763,286.625C372.182,285.472 415.026,179.448 415.069,179.332C426.943,147.415 409.554,151.225 399.504,151.131C390.076,151.043 391.35,143.865 391.496,130.5C391.616,119.517 398.166,121.287 407.5,121.287C519.134,121.286 519.463,121.072 522.177,122.919C526.188,125.649 524.096,146.281 524.071,146.378C521.438,156.463 493.212,143.967 494.447,165.501C494.609,168.33 495.238,179.31 504.842,199.352C505.906,201.571 542.834,287.142 543.754,289.067Z" style="fill:rgb(92,26,46);fill-opacity:1;"/>
    <path d="M117.048,369.498C116.764,356.865 117.287,248.033 116.772,234.49C114.744,181.151 92.9,191.338 84.703,186.148C83.294,185.257 81.168,183.91 81.871,165.503C82.126,158.817 86.022,158.479 92.423,156.286C141.302,139.543 151.702,128.883 160.743,122.856C180.401,109.75 181.325,103.329 184.275,106.702C184.849,107.359 184.786,107.501 184.786,282.5C184.786,353.525 196.475,488.888 62.486,472.61C40.285,469.913 17.196,454.743 8.846,441.271C-4.515,419.715 7.183,415.9 13.311,411.238C16.079,409.132 28.174,400.539 28.407,400.367C43.803,389.03 46.928,387.178 50.265,390.718C54.068,394.753 48.713,440.375 79.476,445.645C120.654,452.7 115.738,399.747 117.048,369.498Z" style="fill:rgb(92,26,46);fill-opacity:1;"/>
</g>
      </svg>
      <text class="label" font-size="14" x="24" y="224">Primary</text>
      <text class="secondary" font-size="12" x="24" y="244">Hero contexts, splash, letterhead</text>
      <text class="mono" font-size="11" x="24" y="264">jw-primary.svg</text>
    </g><g transform="translate(328 140)">
      <rect width="272" height="280" rx="16" fill="#FFFFFF" stroke="#E0D5CA" stroke-width="0.5"/>
      <svg x="56.0" y="32" width="160" height="160" viewBox="0 0 2000 2000" preserveAspectRatio="xMidYMid meet">
        <g id="Generated-Image-April-17--2026---4_15PM.jpg" transform="matrix(1.587553,-0.181492,0.170246,1.692416,491.723728,540.102163)">
    <path d="M65.722,56.344C64.034,53.66 52.775,35.753 65.819,16.711C72.968,6.273 74.472,16.509 78.588,18.268C80.151,18.936 80.012,17.98 85.663,12.684C91.068,7.618 113.164,43.17 82.271,66.183C77.884,69.451 73.233,65.664 65.722,56.344Z" style="fill:rgb(43,31,28);"/>
    <path d="M93.876,68.643C95.393,65.406 106.526,41.657 133.424,47.851C140.41,49.46 143.122,50.282 139.871,56.712C135.707,64.948 143.123,62.436 146.489,66.509C149.757,70.463 126.314,100.706 95.835,81.017C89.739,77.08 91.589,75.53 93.876,68.643Z" style="fill:rgb(43,31,28);"/>
    <path d="M46.467,87.257C43.355,87.49 21.845,89.099 11.812,69.35C9.441,64.682 20.955,63.512 19.808,60.427C17.4,53.955 13.02,51.79 19.429,49.337C51.567,37.033 70.842,73.774 65.523,78.523C58.09,85.158 48.117,86.959 46.467,87.257Z" style="fill:rgb(43,31,28);"/>
    <path d="M114.031,138.394C113.347,140.452 113.38,143.899 103.678,140.081C76.435,129.36 81.876,91.728 88.475,91.27C125.959,88.669 132.62,132.425 124.503,132.421C123.858,132.421 124.023,131.855 116.495,131.453C115.148,131.381 115.604,132.144 114.031,138.394Z" style="fill:rgb(43,31,28);"/>
    <path d="M43.88,138.418C42.871,132.813 42.91,132.842 42.79,132.365C42.133,129.746 32.68,134.228 31.505,131.498C26.176,119.119 40.651,88.637 69.532,91.233C74.89,91.714 83.776,126.799 54.607,139.757C43.078,144.878 43.896,138.463 43.88,138.418Z" style="fill:rgb(43,31,28);"/>
    <path d="M71.923,80.511C73.94,70.363 82.29,74.466 83.51,75.488C93.2,83.618 73.69,96.632 71.923,80.511Z" style="fill:rgb(43,31,28);"/>
</g>
<g id="jw" transform="matrix(1.720985,0,0,1.834662,420.023216,585.501549)">
    <path d="M543.754,289.067C545.339,288.176 545.136,287.904 553.005,268.301C553.675,266.633 560.345,250.018 561.362,247.442C580.755,198.327 593.114,173.501 592.846,161.494C592.39,141.057 565.432,160.825 565.297,142.504C565.194,128.624 563.884,122.408 572.49,121.374C577.541,120.768 654.38,121.244 661.501,121.288C670.267,121.342 671.908,123.781 671.13,143.476C670.584,157.29 655.785,145.326 643.282,156.249C630.526,167.394 602.719,241.511 570.223,314.377C548.267,363.609 549.762,368.289 540.498,368.347C510.818,368.531 509.172,368.469 506.929,365.181C503.897,360.735 458.072,253.109 453.908,243.328C441.273,213.653 441.83,213.326 441.098,212.913C439.096,211.786 439.712,213.491 438.821,215.642C435.622,223.365 389.474,330.18 388.819,331.639C374.787,362.9 376.512,368.134 365.499,368.353C336.994,368.92 335.788,367.78 333.949,366.041C331.038,363.289 302.087,293.314 288.769,263.381C274.073,230.35 250.035,170.039 241.83,159.264C231.067,145.132 216.815,158.104 216.721,142.496C216.641,129.034 215.903,124.894 220.363,122.222C223.287,120.469 339.016,121.137 341.375,121.864C348.761,124.14 345.618,146.684 344.335,148.378C338.925,155.518 311.261,143.07 323.863,180.366C329.404,196.766 360.869,268.055 364.21,275.627C366.277,280.308 369.974,290.809 371.021,289.082C371.465,288.351 371.471,287.429 371.763,286.625C372.182,285.472 415.026,179.448 415.069,179.332C426.943,147.415 409.554,151.225 399.504,151.131C390.076,151.043 391.35,143.865 391.496,130.5C391.616,119.517 398.166,121.287 407.5,121.287C519.134,121.286 519.463,121.072 522.177,122.919C526.188,125.649 524.096,146.281 524.071,146.378C521.438,156.463 493.212,143.967 494.447,165.501C494.609,168.33 495.238,179.31 504.842,199.352C505.906,201.571 542.834,287.142 543.754,289.067Z" style="fill:rgb(43,31,28);fill-opacity:1;"/>
    <path d="M117.048,369.498C116.764,356.865 117.287,248.033 116.772,234.49C114.744,181.151 92.9,191.338 84.703,186.148C83.294,185.257 81.168,183.91 81.871,165.503C82.126,158.817 86.022,158.479 92.423,156.286C141.302,139.543 151.702,128.883 160.743,122.856C180.401,109.75 181.325,103.329 184.275,106.702C184.849,107.359 184.786,107.501 184.786,282.5C184.786,353.525 196.475,488.888 62.486,472.61C40.285,469.913 17.196,454.743 8.846,441.271C-4.515,419.715 7.183,415.9 13.311,411.238C16.079,409.132 28.174,400.539 28.407,400.367C43.803,389.03 46.928,387.178 50.265,390.718C54.068,394.753 48.713,440.375 79.476,445.645C120.654,452.7 115.738,399.747 117.048,369.498Z" style="fill:rgb(43,31,28);fill-opacity:1;"/>
</g>
      </svg>
      <text class="label" font-size="14" x="24" y="224">Monochrome</text>
      <text class="secondary" font-size="12" x="24" y="244">Where color would compete</text>
      <text class="mono" font-size="11" x="24" y="264">jw-mono.svg</text>
    </g><g transform="translate(616 140)">
      <rect width="272" height="280" rx="16" fill="#F2EBE4" stroke="#E0D5CA" stroke-width="0.5"/>
      <svg x="56.0" y="32" width="160" height="160" viewBox="0 0 2000 2000" preserveAspectRatio="xMidYMid meet">
        <g transform="matrix(1.225218,0,0,1.266269,-254.67581,-303.479381)">
    <ellipse cx="1024.043" cy="1029.386" rx="714.159" ry="691.006" style="fill:rgb(92,26,46);"/>
</g>
<g id="Generated-Image-April-17--2026---4_15PM.jpg" transform="matrix(1.587553,-0.181492,0.170246,1.692416,516.656943,540.102163)">
    <path d="M65.722,56.344C64.034,53.66 52.775,35.753 65.819,16.711C72.968,6.273 74.472,16.509 78.588,18.268C80.151,18.936 80.012,17.98 85.663,12.684C91.068,7.618 113.164,43.17 82.271,66.183C77.884,69.451 73.233,65.664 65.722,56.344Z" style="fill:rgb(242,137,173);"/>
    <path d="M93.876,68.643C95.393,65.406 106.526,41.657 133.424,47.851C140.41,49.46 143.122,50.282 139.871,56.712C135.707,64.948 143.123,62.436 146.489,66.509C149.757,70.463 126.314,100.706 95.835,81.017C89.739,77.08 91.589,75.53 93.876,68.643Z" style="fill:rgb(242,137,173);"/>
    <path d="M46.467,87.257C43.355,87.49 21.845,89.099 11.812,69.35C9.441,64.682 20.955,63.512 19.808,60.427C17.4,53.955 13.02,51.79 19.429,49.337C51.567,37.033 70.842,73.774 65.523,78.523C58.09,85.158 48.117,86.959 46.467,87.257Z" style="fill:rgb(242,137,173);"/>
    <path d="M114.031,138.394C113.347,140.452 113.38,143.899 103.678,140.081C76.435,129.36 81.876,91.728 88.475,91.27C125.959,88.669 132.62,132.425 124.503,132.421C123.858,132.421 124.023,131.855 116.495,131.453C115.148,131.381 115.604,132.144 114.031,138.394Z" style="fill:rgb(242,137,173);"/>
    <path d="M43.88,138.418C42.871,132.813 42.91,132.842 42.79,132.365C42.133,129.746 32.68,134.228 31.505,131.498C26.176,119.119 40.651,88.637 69.532,91.233C74.89,91.714 83.776,126.799 54.607,139.757C43.078,144.878 43.896,138.463 43.88,138.418Z" style="fill:rgb(242,137,173);"/>
    <path d="M71.923,80.511C73.94,70.363 82.29,74.466 83.51,75.488C93.2,83.618 73.69,96.632 71.923,80.511Z" style="fill:rgb(242,137,173);"/>
</g>
<g id="jw" transform="matrix(1.720985,0,0,1.834662,444.956431,585.501549)">
    <path d="M543.754,289.067C545.339,288.176 545.136,287.904 553.005,268.301C553.675,266.633 560.345,250.018 561.362,247.442C580.755,198.327 593.114,173.501 592.846,161.494C592.39,141.057 565.432,160.825 565.297,142.504C565.194,128.624 563.884,122.408 572.49,121.374C577.541,120.768 654.38,121.244 661.501,121.288C670.267,121.342 671.908,123.781 671.13,143.476C670.584,157.29 655.785,145.326 643.282,156.249C630.526,167.394 602.719,241.511 570.223,314.377C548.267,363.609 549.762,368.289 540.498,368.347C510.818,368.531 509.172,368.469 506.929,365.181C503.897,360.735 458.072,253.109 453.908,243.328C441.273,213.653 441.83,213.326 441.098,212.913C439.096,211.786 439.712,213.491 438.821,215.642C435.622,223.365 389.474,330.18 388.819,331.639C374.787,362.9 376.512,368.134 365.499,368.353C336.994,368.92 335.788,367.78 333.949,366.041C331.038,363.289 302.087,293.314 288.769,263.381C274.073,230.35 250.035,170.039 241.83,159.264C231.067,145.132 216.815,158.104 216.721,142.496C216.641,129.034 215.903,124.894 220.363,122.222C223.287,120.469 339.016,121.137 341.375,121.864C348.761,124.14 345.618,146.684 344.335,148.378C338.925,155.518 311.261,143.07 323.863,180.366C329.404,196.766 360.869,268.055 364.21,275.627C366.277,280.308 369.974,290.809 371.021,289.082C371.465,288.351 371.471,287.429 371.763,286.625C372.182,285.472 415.026,179.448 415.069,179.332C426.943,147.415 409.554,151.225 399.504,151.131C390.076,151.043 391.35,143.865 391.496,130.5C391.616,119.517 398.166,121.287 407.5,121.287C519.134,121.286 519.463,121.072 522.177,122.919C526.188,125.649 524.096,146.281 524.071,146.378C521.438,156.463 493.212,143.967 494.447,165.501C494.609,168.33 495.238,179.31 504.842,199.352C505.906,201.571 542.834,287.142 543.754,289.067Z" style="fill:rgb(255,232,240);fill-opacity:1;"/>
    <path d="M117.048,369.498C116.764,356.865 117.287,248.033 116.772,234.49C114.744,181.151 92.9,191.338 84.703,186.148C83.294,185.257 81.168,183.91 81.871,165.503C82.126,158.817 86.022,158.479 92.423,156.286C141.302,139.543 151.702,128.883 160.743,122.856C180.401,109.75 181.325,103.329 184.275,106.702C184.849,107.359 184.786,107.501 184.786,282.5C184.786,353.525 196.475,488.888 62.486,472.61C40.285,469.913 17.196,454.743 8.846,441.271C-4.515,419.715 7.183,415.9 13.311,411.238C16.079,409.132 28.174,400.539 28.407,400.367C43.803,389.03 46.928,387.178 50.265,390.718C54.068,394.753 48.713,440.375 79.476,445.645C120.654,452.7 115.738,399.747 117.048,369.498Z" style="fill:rgb(255,232,240);fill-opacity:1;"/>
</g>
      </svg>
      <text class="label" font-size="14" x="24" y="224">Circle</text>
      <text class="secondary" font-size="12" x="24" y="244">Avatars, app icons, favicon</text>
      <text class="mono" font-size="11" x="24" y="264">jw-circle.svg</text>
    </g><g transform="translate(904 140)">
      <rect width="272" height="280" rx="16" fill="#FFFFFF" stroke="#E0D5CA" stroke-width="0.5"/>
      <svg x="56.0" y="32" width="160" height="160" viewBox="0 0 2000 2000" preserveAspectRatio="xMidYMid meet">
        <g id="Generated-Image-April-17--2026---4_15PM.jpg" transform="matrix(6.681789,-0.763874,0.716544,7.123144,422.568324,502.978254)">
    <path d="M65.722,56.344C64.034,53.66 52.775,35.753 65.819,16.711C72.968,6.273 74.472,16.509 78.588,18.268C80.151,18.936 80.012,17.98 85.663,12.684C91.068,7.618 113.164,43.17 82.271,66.183C77.884,69.451 73.233,65.664 65.722,56.344Z" style="fill:rgb(232,127,160);"/>
    <path d="M93.876,68.643C95.393,65.406 106.526,41.657 133.424,47.851C140.41,49.46 143.122,50.282 139.871,56.712C135.707,64.948 143.123,62.436 146.489,66.509C149.757,70.463 126.314,100.706 95.835,81.017C89.739,77.08 91.589,75.53 93.876,68.643Z" style="fill:rgb(232,127,160);"/>
    <path d="M46.467,87.257C43.355,87.49 21.845,89.099 11.812,69.35C9.441,64.682 20.955,63.512 19.808,60.427C17.4,53.955 13.02,51.79 19.429,49.337C51.567,37.033 70.842,73.774 65.523,78.523C58.09,85.158 48.117,86.959 46.467,87.257Z" style="fill:rgb(232,127,160);"/>
    <path d="M114.031,138.394C113.347,140.452 113.38,143.899 103.678,140.081C76.435,129.36 81.876,91.728 88.475,91.27C125.959,88.669 132.62,132.425 124.503,132.421C123.858,132.421 124.023,131.855 116.495,131.453C115.148,131.381 115.604,132.144 114.031,138.394Z" style="fill:rgb(232,127,160);"/>
    <path d="M43.88,138.418C42.871,132.813 42.91,132.842 42.79,132.365C42.133,129.746 32.68,134.228 31.505,131.498C26.176,119.119 40.651,88.637 69.532,91.233C74.89,91.714 83.776,126.799 54.607,139.757C43.078,144.878 43.896,138.463 43.88,138.418Z" style="fill:rgb(232,127,160);"/>
    <path d="M71.923,80.511C73.94,70.363 82.29,74.466 83.51,75.488C93.2,83.618 73.69,96.632 71.923,80.511Z" style="fill:rgb(232,127,160);"/>
</g>
      </svg>
      <text class="label" font-size="14" x="24" y="224">Petal mark</text>
      <text class="secondary" font-size="12" x="24" y="244">Small contexts, 16px minimum</text>
      <text class="mono" font-size="11" x="24" y="264">petal.svg</text>
    </g>
    </svg>