<svg xmlns="http://www.w3.org/2000/svg" viewBox="0 0 1200 440" width="1200" height="440" role="img" aria-label="Shape and motion">
      <style>
  .bg { fill: #1A0F12; }
  .surface { fill: #261619; }
  .muted-surface { fill: #3D2530; }
  .display { font-family: 'Fraunces', 'GT Super', Georgia, 'Times New Roman', serif; font-weight: 400; fill: #FFE8F0; }
  .display-italic { font-family: 'Fraunces', 'GT Super', Georgia, 'Times New Roman', serif; font-weight: 400; font-style: italic; fill: #FFE8F0; }
  .sans { font-family: 'Inter', 'General Sans', -apple-system, BlinkMacSystemFont, 'Segoe UI', sans-serif; font-weight: 400; fill: #FFE8F0; }
  .sans-medium { font-family: 'Inter', 'General Sans', -apple-system, BlinkMacSystemFont, 'Segoe UI', sans-serif; font-weight: 500; fill: #FFE8F0; }
  .mono { font-family: 'JetBrains Mono', 'IBM Plex Mono', 'Cascadia Code', ui-monospace, monospace; font-weight: 400; fill: #8A6578; }
  .mono-ink { font-family: 'JetBrains Mono', 'IBM Plex Mono', 'Cascadia Code', ui-monospace, monospace; font-weight: 400; fill: #FFE8F0; }
  .label { font-family: 'Inter', 'General Sans', -apple-system, BlinkMacSystemFont, 'Segoe UI', sans-serif; font-weight: 500; fill: #FFE8F0; }
  .secondary { font-family: 'Inter', 'General Sans', -apple-system, BlinkMacSystemFont, 'Segoe UI', sans-serif; font-weight: 400; fill: #8A6578; }
  .tertiary { font-family: 'Inter', 'General Sans', -apple-system, BlinkMacSystemFont, 'Segoe UI', sans-serif; font-weight: 400; fill: #6E5260; }
  .eyebrow { font-family: 'Inter', 'General Sans', -apple-system, BlinkMacSystemFont, 'Segoe UI', sans-serif; font-weight: 500; fill: #8A6578; letter-spacing: 0.08em; text-transform: uppercase; }
  .swatch { stroke: #3D2530; stroke-width: 0.5; }
</style>
      <rect class="bg" width="1200" height="440"/>
      <text x="40" y="68" class="display" font-size="40" letter-spacing="-0.02em">Shape &amp; motion</text>
      <text x="40" y="96" class="secondary" font-size="14">Four radii. One easing curve. 0.5px borders, always.</text>
      <text x="40" y="138" class="eyebrow" font-size="11">Corner radii</text>
      <text x="832" y="138" class="eyebrow" font-size="11">Soft landing</text>
      <g transform="translate(40 160)">
  <rect width="168" height="168" rx="4" fill="#261619" stroke="#3D2530" stroke-width="0.5"/>
  <text class="label" font-size="15" x="24" y="36">4px</text>
  <text class="mono" font-size="11" x="24" y="56">--radius-sm</text>
</g><g transform="translate(228 160)">
  <rect width="168" height="168" rx="10" fill="#261619" stroke="#3D2530" stroke-width="0.5"/>
  <text class="label" font-size="15" x="24" y="36">10px</text>
  <text class="mono" font-size="11" x="24" y="56">--radius-md</text>
</g><g transform="translate(416 160)">
  <rect width="168" height="168" rx="16" fill="#261619" stroke="#3D2530" stroke-width="0.5"/>
  <text class="label" font-size="15" x="24" y="36">16px</text>
  <text class="mono" font-size="11" x="24" y="56">--radius-lg</text>
</g><g transform="translate(604 160)">
  <rect width="168" height="168" rx="84" fill="#261619" stroke="#3D2530" stroke-width="0.5"/>
  <text class="label" font-size="15" x="24" y="36">999px</text>
  <text class="mono" font-size="11" x="24" y="56">--radius-pill</text>
</g>
      <g transform="translate(832 160)">
  <rect width="320" height="168" rx="16" fill="#261619" stroke="#3D2530" stroke-width="0.5"/>
  <g transform="translate(40 16)">
    <!-- axes -->
    <line x1="0" y1="168" x2="240" y2="168" stroke="#3D2530" stroke-width="0.5"/>
    <line x1="0" y1="0" x2="0" y2="168" stroke="#3D2530" stroke-width="0.5"/>
    <path d="M 0.00,168.00 L 2.40,159.77 L 4.80,151.86 L 7.20,144.27 L 9.60,136.98 L 12.00,130.00 L 14.40,123.30 L 16.80,116.88 L 19.20,110.73 L 21.60,104.84 L 24.00,99.20 L 26.40,93.81 L 28.80,88.66 L 31.20,83.73 L 33.60,79.03 L 36.00,74.54 L 38.40,70.26 L 40.80,66.18 L 43.20,62.28 L 45.60,58.58 L 48.00,55.05 L 50.40,51.69 L 52.80,48.50 L 55.20,45.47 L 57.60,42.60 L 60.00,39.87 L 62.40,37.28 L 64.80,34.83 L 67.20,32.51 L 69.60,30.31 L 72.00,28.24 L 74.40,26.28 L 76.80,24.43 L 79.20,22.68 L 81.60,21.04 L 84.00,19.49 L 86.40,18.04 L 88.80,16.67 L 91.20,15.39 L 93.60,14.19 L 96.00,13.06 L 98.40,12.01 L 100.80,11.03 L 103.20,10.11 L 105.60,9.25 L 108.00,8.46 L 110.40,7.71 L 112.80,7.03 L 115.20,6.39 L 117.60,5.80 L 120.00,5.25 L 122.40,4.75 L 124.80,4.28 L 127.20,3.85 L 129.60,3.46 L 132.00,3.10 L 134.40,2.77 L 136.80,2.47 L 139.20,2.20 L 141.60,1.95 L 144.00,1.72 L 146.40,1.52 L 148.80,1.33 L 151.20,1.16 L 153.60,1.02 L 156.00,0.88 L 158.40,0.76 L 160.80,0.66 L 163.20,0.56 L 165.60,0.48 L 168.00,0.41 L 170.40,0.34 L 172.80,0.29 L 175.20,0.24 L 177.60,0.20 L 180.00,0.16 L 182.40,0.13 L 184.80,0.11 L 187.20,0.09 L 189.60,0.07 L 192.00,0.05 L 194.40,0.04 L 196.80,0.03 L 199.20,0.02 L 201.60,0.02 L 204.00,0.01 L 206.40,0.01 L 208.80,0.01 L 211.20,0.00 L 213.60,0.00 L 216.00,0.00 L 218.40,0.00 L 220.80,0.00 L 223.20,0.00 L 225.60,0.00 L 228.00,0.00 L 230.40,0.00 L 232.80,0.00 L 235.20,0.00 L 237.60,0.00 L 240.00,0.00" fill="none" stroke="#D4577A" stroke-width="2" stroke-linecap="round"/>
    <circle cx="0" cy="168" r="3" fill="#9F3754"/>
    <circle cx="240" cy="0" r="3" fill="#9F3754"/>
  </g>
  <text class="label" font-size="13" x="40" y="12" opacity="0">.</text>
</g>
<text class="mono" font-size="11" x="872" y="354">ease-out-quint</text>
<text class="mono" font-size="11" x="872" y="370">cubic-bezier(0.22, 1, 0.36, 1)</text>
    </svg>