<?xml version="1.0" encoding="UTF-8" standalone="no"?>
<!DOCTYPE svg PUBLIC "-//W3C//DTD SVG 1.1//EN" "http://www.w3.org/Graphics/SVG/1.1/DTD/svg11.dtd">
<svg width="100%" height="100%" viewBox="0 0 2000 2000" version="1.1" xmlns="http://www.w3.org/2000/svg" xmlns:xlink="http://www.w3.org/1999/xlink" xml:space="preserve" xmlns:serif="http://www.serif.com/" style="fill-rule:evenodd;clip-rule:evenodd;stroke-linejoin:round;stroke-miterlimit:2;">
    <g id="Generated-Image-April-17--2026---4_15PM.jpg" serif:id="Generated Image April 17, 2026 - 4_15PM.jpg" transform="matrix(0.905166,-0.10348,0.097068,0.964955,100.323581,793.661817)">
        <path d="M65.722,56.344C64.034,53.66 52.775,35.753 65.819,16.711C72.968,6.273 74.472,16.509 78.588,18.268C80.151,18.936 80.012,17.98 85.663,12.684C91.068,7.618 113.164,43.17 82.271,66.183C77.884,69.451 73.233,65.664 65.722,56.344Z" style="fill:rgb(242,137,173);"/>
        <path d="M93.876,68.643C95.393,65.406 106.526,41.657 133.424,47.851C140.41,49.46 143.122,50.282 139.871,56.712C135.707,64.948 143.123,62.436 146.489,66.509C149.757,70.463 126.314,100.706 95.835,81.017C89.739,77.08 91.589,75.53 93.876,68.643Z" style="fill:rgb(242,137,173);"/>
        <path d="M46.467,87.257C43.355,87.49 21.845,89.099 11.812,69.35C9.441,64.682 20.955,63.512 19.808,60.427C17.4,53.955 13.02,51.79 19.429,49.337C51.567,37.033 70.842,73.774 65.523,78.523C58.09,85.158 48.117,86.959 46.467,87.257Z" style="fill:rgb(242,137,173);"/>
        <path d="M114.031,138.394C113.347,140.452 113.38,143.899 103.678,140.081C76.435,129.36 81.876,91.728 88.475,91.27C125.959,88.669 132.62,132.425 124.503,132.421C123.858,132.421 124.023,131.855 116.495,131.453C115.148,131.381 115.604,132.144 114.031,138.394Z" style="fill:rgb(242,137,173);"/>
        <path d="M43.88,138.418C42.871,132.813 42.91,132.842 42.79,132.365C42.133,129.746 32.68,134.228 31.505,131.498C26.176,119.119 40.651,88.637 69.532,91.233C74.89,91.714 83.776,126.799 54.607,139.757C43.078,144.878 43.896,138.463 43.88,138.418Z" style="fill:rgb(242,137,173);"/>
        <path d="M71.923,80.511C73.94,70.363 82.29,74.466 83.51,75.488C93.2,83.618 73.69,96.632 71.923,80.511Z" style="fill:rgb(242,137,173);"/>
    </g>
    <g transform="matrix(1.828125,0,0,1.828125,64,794)">
        <path d="M325.563,133.553C325.188,134.585 291.465,214.647 289.396,216.372C287.02,218.354 270.734,217.421 269.671,217.062C266.095,215.855 255.812,187.614 238.799,149.373C219.613,106.251 221.281,100.295 207.499,98.505C202.816,97.897 204.058,91.08 204.058,89.5C204.057,81.706 206.682,82.281 214.5,82.276C266.055,82.243 266.045,82.009 270.514,82.347C276.734,82.818 276.949,97.904 270.508,98.588C255.225,100.212 259.678,108.656 279.19,153.632C287.523,172.841 287.34,173.882 288.404,173.257C289.005,172.904 304.562,133.148 311.872,115.649C320.341,95.378 306.56,98.702 303.494,98.586C297.877,98.374 298.478,83.504 302.508,82.536C304.689,82.012 367.817,82.311 368.513,82.376C375.057,82.984 372.258,96.435 371.364,97.372C369.159,99.681 368.684,98.444 363.519,98.742C344.284,99.852 368.095,135.724 382.264,172.726C383.175,175.104 384.887,170.017 384.991,169.708C386.093,166.433 408.014,115.123 409.705,106.53C411.625,96.767 399.542,98.67 398.496,98.536C392.891,97.819 392.755,83.219 398.487,82.394C400.016,82.174 447.62,82.257 448.513,82.352C454.914,83.039 454.455,98.283 448.505,98.573C432.199,99.368 433.909,104.865 411.171,156.36C385.443,214.625 386.569,217.414 380.499,217.473C370.553,217.569 363.836,218.34 361.899,214.289C354.658,199.139 340.733,165.567 338.963,161.301C338.02,159.028 327.289,133.157 327.064,132.938C326.902,132.78 326.677,133.491 326.515,133.334C326.198,133.407 325.881,133.48 325.563,133.553Z" style="fill:rgb(255,232,240);fill-opacity:1;"/>
        <path d="M856.933,128.478C856.652,137.282 853.383,135.499 845.315,139.077C840.398,141.257 813.573,153.151 783.672,165.914C778.709,168.032 775.826,167.755 778.26,172.604C793.835,203.642 830.227,207.517 850.886,178.784C854.315,174.014 865.748,181.65 865.341,185.481C865.17,187.084 855.605,208.678 833.686,217C813.528,224.653 786.232,220.649 771.601,211.336C721.78,179.622 730.65,110.691 765.236,89.11C808.197,62.303 853.698,91.209 856.933,128.478ZM796.477,100.917C817.482,104.18 816.54,129.9 816.229,130.298C815.431,131.318 792.636,142.224 775.352,151.175C770.818,153.523 771.241,137.867 770.977,130.506C770.593,119.826 776.111,111.617 777.057,110.211C784.121,99.702 793.706,101.025 796.477,100.917Z" style="fill:rgb(255,232,240);fill-opacity:1;"/>
        <path d="M919.5,275.999L916.5,275.999C903.563,267.525 896.477,269.534 900.81,259.642C902.936,254.791 903.391,255.028 928.803,199.646C930,197.036 929.333,196.662 905.838,148.337C887.442,110.501 884.063,100.328 877.38,98.982C874.911,98.485 869.916,99.938 869.869,93.498C869.84,89.477 867.903,82.41 875.498,82.281C880.526,82.195 935.508,81.261 938.357,82.816C940.35,83.905 940.702,87.634 940.284,94.486C939.828,101.964 927.264,95.673 927.191,105.5C927.129,113.836 945.856,149.529 950.237,160.675C950.44,161.192 950.291,161.967 950.766,162.256C951.078,162.446 951.187,161.252 951.499,161.442C951.825,161.456 952.152,161.47 952.478,161.484C963.471,136.299 976.824,115.821 977.443,104.5C977.996,94.374 963.828,103.045 962.598,94.49C961.026,83.553 964.548,82.752 965.507,82.533C969.485,81.628 969.441,81.931 1016.501,82.277C1023.903,82.331 1022.928,85.105 1022.868,92.502C1022.782,103.191 1013.841,94.71 1006.792,102.751C1001.609,108.663 1002.156,109.087 962.163,190.319C923.234,269.389 922.259,268.856 919.5,275.999Z" style="fill:rgb(255,232,240);fill-opacity:1;"/>
        <path d="M654.429,42.965C649.545,41.975 650.322,39.528 650.438,31.498C650.475,28.901 650.418,28.167 658.668,24.93C704.763,6.848 703.007,-0.892 706.39,1.677C708.208,3.057 706.199,177.743 707.469,182.508C714.349,208.331 725.76,197.196 730.435,202.557C730.52,202.654 734.903,216.814 726.493,217.415C724.965,217.524 653.639,217.533 650.507,217.41C643.717,217.143 645.6,207.386 645.614,206.502C645.73,199.197 652.23,201.203 654.551,200.741C672.358,197.196 669.661,173.854 669.661,141.5C669.661,54.047 671.54,48.205 654.429,42.965Z" style="fill:rgb(255,232,240);fill-opacity:1;"/>
        <path d="M121.034,209.5C121.137,202.555 121.63,201.168 128.521,200.864C148.336,199.991 144.859,164.302 144.859,153.5C144.859,53.432 146.948,46.487 129.43,42.947C124.413,41.933 125.792,36.622 125.819,31.506C125.843,27.034 127.673,27.768 146.655,19.897C176.845,7.377 181.911,-5.098 181.91,5.5C181.91,47.5 181.91,89.5 181.91,131.5C181.91,183.614 179.125,199.676 202.547,201.102C208.38,201.458 208.356,215.775 203.411,217.163C199.842,218.165 134.493,217.541 128.5,217.484C121.584,217.418 120.972,215.996 121.034,209.5Z" style="fill:rgb(255,232,240);fill-opacity:1;"/>
        <path d="M576.041,78.5C575.485,60.632 576.095,46.642 561.574,43.18C556.153,41.888 556.52,40.404 556.873,31.512C557.03,27.557 559.326,27.119 566.472,24.431C603.507,10.501 609.897,0.11 612.355,1.701C613.089,2.176 613.002,2.456 613.002,96.5C613.002,183.228 612.262,183.862 617.812,193.305C625.317,206.072 637.665,195.379 637.741,207.499C637.756,209.843 639.348,217.074 632.496,217.434C630.536,217.537 557.985,217.476 557.501,217.462C553.131,217.337 550.967,215.718 552.143,204.442C552.874,197.427 563.153,205.543 570.973,193.801C576.75,185.126 576.041,184.348 576.041,78.5Z" style="fill:rgb(255,232,240);fill-opacity:1;"/>
        <path d="M46.5,275.999L43.5,275.999C43.031,275.911 42.946,275.086 42.477,274.997C41.306,274.777 35.347,275.63 26.434,272.691C9.372,267.066 -6.169,250.753 5.73,241.798C9.016,239.324 14.47,235.672 15.241,235.155C17.884,233.385 27.519,223.899 28.296,232.517C28.403,233.71 27.706,261.519 48.463,260.033C65.617,258.806 63.867,243.89 63.806,151.5C63.788,122.525 58.987,121.771 47.596,118.196C47.028,118.018 43.796,117.989 44.745,106.512C45.4,98.59 54.376,104.94 85.209,85.079C93.713,79.602 100.878,70.274 100.916,76.478C101.784,217.813 100.535,222.228 97.096,234.387C84.591,278.596 50.732,274.372 47.529,274.973C47.053,275.062 46.976,275.91 46.5,275.999Z" style="fill:rgb(255,232,240);fill-opacity:1;"/>
        <path d="M482.081,179.472C482.887,132.979 482.319,121.758 468.427,118.827C460.675,117.191 462.983,114.418 463.064,106.485C463.103,102.567 466.351,102.21 474.47,99.415C504.961,88.916 515.913,73.501 518.59,74.317C519.457,74.582 519.331,75.028 519.331,125.5C519.331,182.449 516.39,200.106 539.534,201.077C545.835,201.341 546.758,216.362 539.485,217.366C535.777,217.877 470.499,217.512 464.5,217.478C456.09,217.431 458.028,213.849 458.176,205.483C458.281,199.569 466.216,201.061 467.541,200.643C479.532,196.856 480.578,187.695 482.081,179.472Z" style="fill:rgb(255,232,240);fill-opacity:1;"/>
        <path d="M481.081,37.495C482.12,25.011 497.654,10.83 511.606,21.35C535.854,39.636 509.659,62.296 496.58,57.236C482.236,51.688 481.244,39.496 481.081,37.495Z" style="fill:rgb(255,232,240);fill-opacity:1;"/>
    </g>
</svg>
