<?xml version="1.0" encoding="UTF-8" standalone="no"?>
<!DOCTYPE svg PUBLIC "-//W3C//DTD SVG 1.1//EN" "http://www.w3.org/Graphics/SVG/1.1/DTD/svg11.dtd">
<svg width="100%" height="100%" viewBox="0 0 2000 2000" version="1.1" xmlns="http://www.w3.org/2000/svg" xmlns:xlink="http://www.w3.org/1999/xlink" xml:space="preserve" xmlns:serif="http://www.serif.com/" style="fill-rule:evenodd;clip-rule:evenodd;stroke-linejoin:round;stroke-miterlimit:2;">
    <g id="Generated-Image-April-17--2026---4_15PM.jpg" serif:id="Generated Image April 17, 2026 - 4_15PM.jpg" transform="matrix(6.681789,-0.763874,0.716544,7.123144,422.568324,502.978254)">
        <path d="M65.722,56.344C64.034,53.66 52.775,35.753 65.819,16.711C72.968,6.273 74.472,16.509 78.588,18.268C80.151,18.936 80.012,17.98 85.663,12.684C91.068,7.618 113.164,43.17 82.271,66.183C77.884,69.451 73.233,65.664 65.722,56.344Z" style="fill:rgb(232,127,160);"/>
        <path d="M93.876,68.643C95.393,65.406 106.526,41.657 133.424,47.851C140.41,49.46 143.122,50.282 139.871,56.712C135.707,64.948 143.123,62.436 146.489,66.509C149.757,70.463 126.314,100.706 95.835,81.017C89.739,77.08 91.589,75.53 93.876,68.643Z" style="fill:rgb(232,127,160);"/>
        <path d="M46.467,87.257C43.355,87.49 21.845,89.099 11.812,69.35C9.441,64.682 20.955,63.512 19.808,60.427C17.4,53.955 13.02,51.79 19.429,49.337C51.567,37.033 70.842,73.774 65.523,78.523C58.09,85.158 48.117,86.959 46.467,87.257Z" style="fill:rgb(232,127,160);"/>
        <path d="M114.031,138.394C113.347,140.452 113.38,143.899 103.678,140.081C76.435,129.36 81.876,91.728 88.475,91.27C125.959,88.669 132.62,132.425 124.503,132.421C123.858,132.421 124.023,131.855 116.495,131.453C115.148,131.381 115.604,132.144 114.031,138.394Z" style="fill:rgb(232,127,160);"/>
        <path d="M43.88,138.418C42.871,132.813 42.91,132.842 42.79,132.365C42.133,129.746 32.68,134.228 31.505,131.498C26.176,119.119 40.651,88.637 69.532,91.233C74.89,91.714 83.776,126.799 54.607,139.757C43.078,144.878 43.896,138.463 43.88,138.418Z" style="fill:rgb(232,127,160);"/>
        <path d="M71.923,80.511C73.94,70.363 82.29,74.466 83.51,75.488C93.2,83.618 73.69,96.632 71.923,80.511Z" style="fill:rgb(232,127,160);"/>
    </g>
</svg>
